<svg xmlns="http://www.w3.org/2000/svg" width="960" height="540" viewBox="0 0 960 540" role="img" aria-label="visual-features.svg">
  <defs>
    <linearGradient id="bg" x1="0" y1="0" x2="1" y2="1">
      <stop offset="0" stop-color="#0f2b47"/>
      <stop offset="0.55" stop-color="#0b1d33"/>
      <stop offset="1" stop-color="#07111f"/>
    </linearGradient>
    <linearGradient id="a" x1="0" y1="0" x2="1" y2="1">
      <stop offset="0" stop-color="#53f4d4"/>
      <stop offset="1" stop-color="#35a7ff"/>
    </linearGradient>
    <linearGradient id="b" x1="0" y1="0" x2="1" y2="1">
      <stop offset="0" stop-color="#ffd166"/>
      <stop offset="1" stop-color="#ff8f70"/>
    </linearGradient>
    <linearGradient id="c" x1="0" y1="0" x2="1" y2="1">
      <stop offset="0" stop-color="#b794ff"/>
      <stop offset="1" stop-color="#73e2a7"/>
    </linearGradient>
    <filter id="shadow" x="-30%" y="-30%" width="160%" height="160%">
      <feDropShadow dx="0" dy="18" stdDeviation="18" flood-color="#000" flood-opacity="0.32"/>
    </filter>
    <style>
      .bg{fill:url(#bg)} .panel{fill:rgba(255,255,255,.07);stroke:rgba(255,255,255,.22);stroke-width:2}
      .muted{fill:#9fb3ca} .text{fill:#f5f8ff;font-family:Inter,Arial,sans-serif;font-weight:800}
      .small{font-size:24px;font-weight:700} .label{font-size:22px;font-weight:800} .title{font-size:38px;font-weight:900}
      .line{stroke:#53f4d4;stroke-width:4;stroke-linecap:round;stroke-linejoin:round;fill:none}
      .dark{fill:#07111f!important} .thin{stroke:rgba(255,255,255,.28);stroke-width:2;fill:none} .chip{fill:url(#a)} .warm{fill:url(#b)} .violet{fill:url(#c)}
    </style>
  </defs>
  <rect class="bg" width="960" height="540" rx="42"/>
  <circle cx="850" cy="90" r="180" fill="#35a7ff" opacity="0.12"/>
  <circle cx="120" cy="465" r="220" fill="#53f4d4" opacity="0.10"/>
  
  <rect x="90" y="78" width="780" height="384" rx="34" class="panel" filter="url(#shadow)"/>
  <text x="130" y="145" class="text title">Ankhor Key features</text>
  <g transform="translate(130 205)">
    <rect width="175" height="145" rx="26" class="panel"/><text x="36" y="62" class="text label">FIDO2</text><text x="29" y="98" class="muted small">login</text>
    <rect x="205" width="175" height="145" rx="26" class="panel"/><text x="246" y="62" class="text label">PUF</text><text x="234" y="98" class="muted small">root</text>
    <rect x="410" width="175" height="145" rx="26" class="panel"/><text x="444" y="62" class="text label">Local</text><text x="444" y="98" class="muted small">crypto</text>
    <rect x="615" width="175" height="145" rx="26" class="panel"/><text x="643" y="62" class="text label">Touch</text><text x="655" y="98" class="muted small">use</text>
  </g>

</svg>