<svg xmlns="http://www.w3.org/2000/svg" width="960" height="540" viewBox="0 0 960 540" role="img" aria-label="visual-ankhor-key.svg">
  <defs>
    <linearGradient id="bg" x1="0" y1="0" x2="1" y2="1">
      <stop offset="0" stop-color="#0f2b47"/>
      <stop offset="0.55" stop-color="#0b1d33"/>
      <stop offset="1" stop-color="#07111f"/>
    </linearGradient>
    <linearGradient id="a" x1="0" y1="0" x2="1" y2="1">
      <stop offset="0" stop-color="#53f4d4"/>
      <stop offset="1" stop-color="#35a7ff"/>
    </linearGradient>
    <linearGradient id="b" x1="0" y1="0" x2="1" y2="1">
      <stop offset="0" stop-color="#ffd166"/>
      <stop offset="1" stop-color="#ff8f70"/>
    </linearGradient>
    <linearGradient id="c" x1="0" y1="0" x2="1" y2="1">
      <stop offset="0" stop-color="#b794ff"/>
      <stop offset="1" stop-color="#73e2a7"/>
    </linearGradient>
    <filter id="shadow" x="-30%" y="-30%" width="160%" height="160%">
      <feDropShadow dx="0" dy="18" stdDeviation="18" flood-color="#000" flood-opacity="0.32"/>
    </filter>
    <style>
      .bg{fill:url(#bg)} .panel{fill:rgba(255,255,255,.07);stroke:rgba(255,255,255,.22);stroke-width:2}
      .muted{fill:#9fb3ca} .text{fill:#f5f8ff;font-family:Inter,Arial,sans-serif;font-weight:800}
      .small{font-size:24px;font-weight:700} .label{font-size:22px;font-weight:800} .title{font-size:38px;font-weight:900}
      .line{stroke:#53f4d4;stroke-width:4;stroke-linecap:round;stroke-linejoin:round;fill:none}
      .dark{fill:#07111f!important} .thin{stroke:rgba(255,255,255,.28);stroke-width:2;fill:none} .chip{fill:url(#a)} .warm{fill:url(#b)} .violet{fill:url(#c)}
    </style>
  </defs>
  <rect class="bg" width="960" height="540" rx="42"/>
  <circle cx="850" cy="90" r="180" fill="#35a7ff" opacity="0.12"/>
  <circle cx="120" cy="465" r="220" fill="#53f4d4" opacity="0.10"/>
  
  <rect x="95" y="90" width="770" height="360" rx="34" class="panel" filter="url(#shadow)"/>
  <g transform="translate(130 145)">
    <rect x="0" y="50" width="390" height="156" rx="38" fill="#f5f8ff"/>
    <rect x="315" y="92" width="84" height="72" rx="18" fill="#cbd8ea"/>
    <rect x="28" y="80" width="210" height="96" rx="24" fill="#0b1d33"/>
    <circle cx="292" cy="128" r="34" fill="url(#a)"/>
    <text x="56" y="124" class="text title">Ankhor</text>
    <text x="58" y="160" class="muted small">PUF Security Key</text>
  </g>
  <g transform="translate(575 145)">
    <rect x="0" y="0" width="240" height="70" rx="24" fill="url(#a)"/>
    <text x="36" y="45" class="text label dark">FIDO2</text>
    <rect x="0" y="96" width="240" height="70" rx="24" class="panel"/>
    <text x="31" y="141" class="text label">Dynamic PUF</text>
    <rect x="0" y="192" width="240" height="70" rx="24" class="panel"/>
    <text x="36" y="237" class="text label">Local trust</text>
  </g>

</svg>