<svg xmlns="http://www.w3.org/2000/svg" width="960" height="540" viewBox="0 0 960 540" role="img" aria-label="visual-sase-architecture.svg">
  <defs>
    <linearGradient id="bg" x1="0" y1="0" x2="1" y2="1">
      <stop offset="0" stop-color="#0f2b47"/>
      <stop offset="0.55" stop-color="#0b1d33"/>
      <stop offset="1" stop-color="#07111f"/>
    </linearGradient>
    <linearGradient id="a" x1="0" y1="0" x2="1" y2="1">
      <stop offset="0" stop-color="#53f4d4"/>
      <stop offset="1" stop-color="#35a7ff"/>
    </linearGradient>
    <linearGradient id="b" x1="0" y1="0" x2="1" y2="1">
      <stop offset="0" stop-color="#ffd166"/>
      <stop offset="1" stop-color="#ff8f70"/>
    </linearGradient>
    <linearGradient id="c" x1="0" y1="0" x2="1" y2="1">
      <stop offset="0" stop-color="#b794ff"/>
      <stop offset="1" stop-color="#73e2a7"/>
    </linearGradient>
    <filter id="shadow" x="-30%" y="-30%" width="160%" height="160%">
      <feDropShadow dx="0" dy="18" stdDeviation="18" flood-color="#000" flood-opacity="0.32"/>
    </filter>
    <style>
      .bg{fill:url(#bg)} .panel{fill:rgba(255,255,255,.07);stroke:rgba(255,255,255,.22);stroke-width:2}
      .muted{fill:#9fb3ca} .text{fill:#f5f8ff;font-family:Inter,Arial,sans-serif;font-weight:800}
      .small{font-size:24px;font-weight:700} .label{font-size:22px;font-weight:800} .title{font-size:38px;font-weight:900}
      .line{stroke:#53f4d4;stroke-width:4;stroke-linecap:round;stroke-linejoin:round;fill:none}
      .dark{fill:#07111f!important} .thin{stroke:rgba(255,255,255,.28);stroke-width:2;fill:none} .chip{fill:url(#a)} .warm{fill:url(#b)} .violet{fill:url(#c)}
    </style>
  </defs>
  <rect class="bg" width="960" height="540" rx="42"/>
  <circle cx="850" cy="90" r="180" fill="#35a7ff" opacity="0.12"/>
  <circle cx="120" cy="465" r="220" fill="#53f4d4" opacity="0.10"/>
  
  <rect x="82" y="60" width="796" height="420" rx="34" class="panel" filter="url(#shadow)"/>
  <text x="120" y="122" class="text title">SASe architecture</text>
  <text x="120" y="162" class="muted small">Hardware-rooted trust blocks for product integration</text>
  <rect x="290" y="210" width="380" height="160" rx="30" fill="url(#a)"/>
  <text x="372" y="282" class="text title dark">Dynamic PUF</text>
  <text x="386" y="322" class="text small dark">root of trust source</text>
  <g>
    <rect x="110" y="215" width="150" height="70" rx="20" class="panel"/><text x="155" y="259" class="text small">TRNG</text>
    <rect x="110" y="320" width="150" height="70" rx="20" class="panel"/><text x="134" y="364" class="text small">Interface</text>
    <rect x="700" y="215" width="150" height="70" rx="20" class="panel"/><text x="733" y="259" class="text small">RoT #1</text>
    <rect x="700" y="320" width="150" height="70" rx="20" class="panel"/><text x="733" y="364" class="text small">RoT #N</text>
  </g>
  <path d="M260 250h30M260 355h30M670 250h30M670 355h30" class="line"/>

</svg>